%TF.GenerationSoftware,KiCad,Pcbnew,8.0.1*%
%TF.CreationDate,2024-04-03T19:49:51-04:00*%
%TF.ProjectId,PCB_Business_Card,5043425f-4275-4736-996e-6573735f4361,0*%
%TF.SameCoordinates,Original*%
%TF.FileFunction,Soldermask,Bot*%
%TF.FilePolarity,Negative*%
%FSLAX46Y46*%
G04 Gerber Fmt 4.6, Leading zero omitted, Abs format (unit mm)*
G04 Created by KiCad (PCBNEW 8.0.1) date 2024-04-03 19:49:51*
%MOMM*%
%LPD*%
G01*
G04 APERTURE LIST*
G04 APERTURE END LIST*
G36*
X130313156Y-88686130D02*
G01*
X130410725Y-88735844D01*
X130488156Y-88813275D01*
X130537870Y-88910844D01*
X130555000Y-89019000D01*
X130537870Y-89127156D01*
X130488156Y-89224725D01*
X130410725Y-89302156D01*
X130313156Y-89351870D01*
X130205000Y-89369000D01*
X130096844Y-89351870D01*
X129999275Y-89302156D01*
X129921844Y-89224725D01*
X129872130Y-89127156D01*
X129855000Y-89019000D01*
X129872130Y-88910844D01*
X129921844Y-88813275D01*
X129999275Y-88735844D01*
X130096844Y-88686130D01*
X130205000Y-88669000D01*
X130313156Y-88686130D01*
G37*
G36*
X145988556Y-88186130D02*
G01*
X146086125Y-88235844D01*
X146163556Y-88313275D01*
X146213270Y-88410844D01*
X146230400Y-88519000D01*
X146213270Y-88627156D01*
X146163556Y-88724725D01*
X146086125Y-88802156D01*
X145988556Y-88851870D01*
X145880400Y-88869000D01*
X145772244Y-88851870D01*
X145674675Y-88802156D01*
X145597244Y-88724725D01*
X145547530Y-88627156D01*
X145530400Y-88519000D01*
X145547530Y-88410844D01*
X145597244Y-88313275D01*
X145674675Y-88235844D01*
X145772244Y-88186130D01*
X145880400Y-88169000D01*
X145988556Y-88186130D01*
G37*
M02*
