%TF.GenerationSoftware,KiCad,Pcbnew,8.0.1*%
%TF.CreationDate,2024-04-03T19:49:51-04:00*%
%TF.ProjectId,PCB_Business_Card,5043425f-4275-4736-996e-6573735f4361,0*%
%TF.SameCoordinates,Original*%
%TF.FileFunction,Copper,L2,Bot*%
%TF.FilePolarity,Positive*%
%FSLAX46Y46*%
G04 Gerber Fmt 4.6, Leading zero omitted, Abs format (unit mm)*
G04 Created by KiCad (PCBNEW 8.0.1) date 2024-04-03 19:49:51*
%MOMM*%
%LPD*%
G01*
G04 APERTURE LIST*
%TA.AperFunction,ComponentPad*%
%ADD10C,0.700000*%
%TD*%
%TA.AperFunction,Conductor*%
%ADD11C,0.300000*%
%TD*%
G04 APERTURE END LIST*
D10*
%TO.P,REF\u002A\u002A,*%
%TO.N,Net-(U1-LA)*%
X130205000Y-89019000D03*
%TD*%
%TO.P,,*%
%TO.N,Net-(U1-LA)*%
X145880400Y-88519000D03*
%TD*%
D11*
%TO.N,Net-(U1-LA)*%
X130705000Y-88519000D02*
X130205000Y-89019000D01*
X145880400Y-88519000D02*
X130705000Y-88519000D01*
%TD*%
%TA.AperFunction,NonConductor*%
G36*
X175260927Y-63500013D02*
G01*
X175406957Y-63502218D01*
X175419998Y-63503105D01*
X175710834Y-63538419D01*
X175725531Y-63541112D01*
X176009072Y-63610999D01*
X176023362Y-63615453D01*
X176296390Y-63718998D01*
X176310045Y-63725144D01*
X176568595Y-63860842D01*
X176581409Y-63868588D01*
X176821731Y-64034470D01*
X176833514Y-64043702D01*
X177052078Y-64237333D01*
X177062666Y-64247921D01*
X177256297Y-64466485D01*
X177265532Y-64478272D01*
X177431411Y-64718590D01*
X177439157Y-64731404D01*
X177574855Y-64989954D01*
X177581001Y-65003609D01*
X177684546Y-65276637D01*
X177689001Y-65290932D01*
X177758883Y-65574450D01*
X177761582Y-65589179D01*
X177796892Y-65879983D01*
X177797782Y-65893058D01*
X177799986Y-66039071D01*
X177800000Y-66040943D01*
X177800000Y-111759056D01*
X177799986Y-111760928D01*
X177797782Y-111906941D01*
X177796892Y-111920016D01*
X177761582Y-112210820D01*
X177758883Y-112225549D01*
X177689001Y-112509067D01*
X177684546Y-112523362D01*
X177581001Y-112796390D01*
X177574855Y-112810045D01*
X177439157Y-113068595D01*
X177431411Y-113081409D01*
X177265532Y-113321727D01*
X177256297Y-113333514D01*
X177062666Y-113552078D01*
X177052078Y-113562666D01*
X176833514Y-113756297D01*
X176821727Y-113765532D01*
X176581409Y-113931411D01*
X176568595Y-113939157D01*
X176310045Y-114074855D01*
X176296390Y-114081001D01*
X176023362Y-114184546D01*
X176009067Y-114189001D01*
X175725549Y-114258883D01*
X175710820Y-114261582D01*
X175420016Y-114296892D01*
X175406941Y-114297782D01*
X175319730Y-114299098D01*
X175260926Y-114299986D01*
X175259057Y-114300000D01*
X135633000Y-114300000D01*
X135565961Y-114280315D01*
X135520206Y-114227511D01*
X135509000Y-114176000D01*
X135509000Y-89043500D01*
X135528685Y-88976461D01*
X135581489Y-88930706D01*
X135633000Y-88919500D01*
X145107269Y-88919500D01*
X145143580Y-88924936D01*
X145661494Y-89083550D01*
X145661496Y-89083550D01*
X145661502Y-89083552D01*
X145663160Y-89083761D01*
X145666066Y-89084531D01*
X145666710Y-89084669D01*
X145666703Y-89084699D01*
X145695104Y-89092225D01*
X145723638Y-89104044D01*
X145802019Y-89114363D01*
X145880399Y-89124682D01*
X145880400Y-89124682D01*
X145880401Y-89124682D01*
X145932654Y-89117802D01*
X146037162Y-89104044D01*
X146183241Y-89043536D01*
X146308682Y-88947282D01*
X146404936Y-88821841D01*
X146465444Y-88675762D01*
X146486082Y-88519000D01*
X146479140Y-88466273D01*
X146465444Y-88362239D01*
X146465444Y-88362238D01*
X146404936Y-88216159D01*
X146308682Y-88090718D01*
X146183241Y-87994464D01*
X146037162Y-87933956D01*
X146037160Y-87933955D01*
X145880401Y-87913318D01*
X145880399Y-87913318D01*
X145723635Y-87933956D01*
X145695096Y-87945777D01*
X145667381Y-87952760D01*
X145667479Y-87953241D01*
X145661503Y-87954446D01*
X145143576Y-88113064D01*
X145107265Y-88118500D01*
X135633000Y-88118500D01*
X135565961Y-88098815D01*
X135520206Y-88046011D01*
X135509000Y-87994500D01*
X135509000Y-63624000D01*
X135528685Y-63556961D01*
X135581489Y-63511206D01*
X135633000Y-63500000D01*
X175259057Y-63500000D01*
X175260927Y-63500013D01*
G37*
%TD.AperFunction*%
%TA.AperFunction,Conductor*%
%TO.N,Net-(U1-LA)*%
G36*
X130600026Y-88424078D02*
G01*
X130799921Y-88623973D01*
X130803348Y-88632246D01*
X130801981Y-88637734D01*
X130533331Y-89143573D01*
X130526424Y-89149272D01*
X130518549Y-89148906D01*
X130208808Y-89021563D01*
X130202460Y-89015249D01*
X130075093Y-88705449D01*
X130075116Y-88696495D01*
X130080425Y-88690668D01*
X130586267Y-88422017D01*
X130595179Y-88421164D01*
X130600026Y-88424078D01*
G37*
%TD.AperFunction*%
%TD*%
%TA.AperFunction,Conductor*%
%TO.N,Net-(U1-LA)*%
G36*
X145745234Y-88199601D02*
G01*
X145750544Y-88205428D01*
X145879519Y-88514494D01*
X145879542Y-88523449D01*
X145879519Y-88523506D01*
X145750544Y-88832571D01*
X145744195Y-88838886D01*
X145736320Y-88839252D01*
X145188674Y-88671533D01*
X145181767Y-88665834D01*
X145180400Y-88660346D01*
X145180400Y-88377653D01*
X145183827Y-88369380D01*
X145188674Y-88366466D01*
X145736321Y-88198747D01*
X145745234Y-88199601D01*
G37*
%TD.AperFunction*%
%TD*%
M02*
